<svg width="563" height="105" viewBox="0 0 563 105" fill="none" xmlns="http://www.w3.org/2000/svg">
<path d="M68.7344 54.625L68.5469 60.7188C68.5469 64.125 69.2344 66.5156 70.6094 67.8906L69.625 68.8281C68.4375 67.6094 66.875 67 64.9375 67H51.2969C51.3281 67.4375 51.3438 68.0156 51.3438 68.7344C51.3438 70.4844 50.9062 71.3594 50.0312 71.3594C49.1562 71.3594 48.7188 70.375 48.7188 68.4062C48.7188 67.8125 48.7344 67.3438 48.7656 67H6.8125C6.0625 67 5.40625 68.3438 4.84375 71.0312C4.3125 73.75 4.04688 75.9219 4.04688 77.5469C4.04688 79.1719 4.42188 82.0781 5.17188 86.2656C5.92188 90.4844 6.29688 93.7656 6.29688 96.1094C6.29688 98.4844 5.375 99.6719 3.53125 99.6719C1.53125 99.6719 0.53125 98.4531 0.53125 96.0156C0.53125 93.5781 0.953125 90.1875 1.79688 85.8438C2.64062 81.5312 3.0625 78.2812 3.0625 76.0938L3.01562 8.35938C3.01562 6.45312 2.39062 4.89062 1.14062 3.67188L2.125 2.6875C3.40625 3.9375 4.96875 4.5625 6.8125 4.5625H23.5938C25.5 4.5625 27.0625 3.9375 28.2812 2.6875L29.2656 3.67188C28.0156 4.89062 27.3906 6.45312 27.3906 8.35938V47.0312C27.3906 48.9062 26.7812 50.4531 25.5625 51.6719L26.5469 52.6562C28.1406 51.0625 31.625 50.2656 37 50.2656L59.2188 51.3906C64.5625 51.3906 68.0312 50.5938 69.625 49L70.6094 49.9375C69.3594 51.1562 68.7344 52.7188 68.7344 54.625ZM51.625 87.8125C51.625 89.0938 51.0938 89.7344 50.0312 89.7344C48.9688 89.7344 48.4375 88.9688 48.4375 87.4375C48.4375 86.0938 48.6875 84.4375 49.1875 82.4688C49.7188 80.5312 50 79.4844 50.0312 79.3281C50.0938 79.6406 50.25 80.2812 50.5 81.25C50.75 82.2188 50.9375 82.9688 51.0625 83.5C51.4375 85.0938 51.625 86.5312 51.625 87.8125ZM107.172 59.2188L106.422 53.4062V52.8906C107.078 51.7344 107.969 51.1562 109.094 51.1562L147.344 51.2031C149.25 51.2031 150.797 50.5938 151.984 49.375L152.922 50.3125C151.547 51.6875 150.859 54.3125 150.859 58.1875C150.859 58.1875 150.859 59.0938 150.859 60.9062C150.859 64.0625 151.547 66.3594 152.922 67.7969L151.984 68.7344C150.766 67.5156 149.219 66.9062 147.344 66.9062H91.8906C89.1094 66.9062 87.0625 67.4375 85.75 68.5C84.25 69.75 83.5 73.2812 83.5 79.0938C83.5 81.4375 83.8594 84.8906 84.5781 89.4531C85.2969 94.0469 85.6562 97.5 85.6562 99.8125C85.6562 103.156 84.4688 104.828 82.0938 104.828C79.5312 104.828 78.25 103.109 78.25 99.6719C78.25 97.3281 78.7656 93.8594 79.7969 89.2656C80.8281 84.6719 81.3438 81.1875 81.3438 78.8125L81.1094 63.1094V8.45312C81.1094 6.51562 80.5156 4.96875 79.3281 3.8125L80.2656 2.82812C81.5469 4.04688 83.1094 4.65625 84.9531 4.65625H145.141C147.047 4.65625 148.609 4.04688 149.828 2.82812L150.766 3.8125C149.391 5.1875 148.703 7.78125 148.703 11.5938V14.2188C148.703 17.5625 149.391 19.9062 150.766 21.25L149.828 22.1406C148.266 20.5469 144.594 19.75 138.812 19.75L115.516 20.8281C109.766 20.8281 106.109 20.0312 104.547 18.4375L103.562 19.375C104.781 20.5625 105.391 22.1406 105.391 24.1094C105.391 26.0469 104.781 27.6094 103.562 28.7969L104.547 29.6875C106.047 28.125 109.203 27.3438 114.016 27.3438L133.656 28.4219C138.5 28.4219 141.703 27.6406 143.266 26.0781L144.25 27.0156C142.875 28.3906 142.188 31.0312 142.188 34.9375V37.5625C142.188 40.7812 142.875 43.1094 144.25 44.5469L143.266 45.5312C141.766 43.9688 138.594 43.1875 133.75 43.1875L114.109 44.2188C109.297 44.2188 106.109 43.4375 104.547 41.875L103.609 42.8125C104.547 43.75 105.094 44.875 105.25 46.1875C105.406 47.4688 105.5 48.3906 105.531 48.9531C105.562 49.4844 105.562 50.3281 105.531 51.4844C105.5 52.6094 105.484 53.2812 105.484 53.5L104.688 59.125C104.688 60.25 105.094 60.8125 105.906 60.8125C106.75 60.8125 107.172 60.2812 107.172 59.2188ZM161.594 16.7031L161.828 10.7031C161.828 7.26562 161.156 4.89062 159.812 3.57812L160.75 2.64062C162 3.85938 163.547 4.46875 165.391 4.46875H226.938C228.844 4.46875 230.406 3.85938 231.625 2.64062L232.562 3.57812C231.375 4.76562 230.781 6.32812 230.781 8.26562L230.547 14.2656C230.547 17.6406 231.219 20 232.562 21.3438L231.625 22.3281C230.219 20.8906 227.938 20.1719 224.781 20.1719L214.422 20.8281C211.141 20.8281 208.781 20.1094 207.344 18.6719L206.359 19.6094C207.578 20.7969 208.188 22.3594 208.188 24.2969V63.2031C208.188 66.4531 208.469 71.2969 209.031 77.7344C209.625 84.1719 209.922 88.4062 209.922 90.4375C209.922 94 209.281 95.7812 208 95.7812C206.719 95.7812 206.078 94.5156 206.078 91.9844C206.078 89.4531 206.281 86.0156 206.688 81.6719C207.125 77.3594 207.344 74.1094 207.344 71.9219C207.344 68.5156 206.672 66.8125 205.328 66.8125C204.672 66.8125 204.156 67.2031 203.781 67.9844C203.406 68.7656 203.219 69.5312 203.219 70.2812L204.297 80.0781C204.297 82.3281 203.656 83.4531 202.375 83.4531C201.719 83.4531 201.234 83.125 200.922 82.4688C200.609 81.8125 200.453 81.0469 200.453 80.1719C200.453 79.2969 200.734 77.8594 201.297 75.8594C201.859 73.8906 202.141 72.2812 202.141 71.0312C202.141 69.7812 201.594 68.8281 200.5 68.1719C199.438 67.5156 198.078 67.1875 196.422 67.1875C194.797 67.1875 193.094 67.5156 191.312 68.1719C189.562 68.8281 188.016 69.8438 186.672 71.2188C185.328 72.625 184.656 74 184.656 75.3438C184.656 76.7188 184.859 78.375 185.266 80.3125C185.703 82.25 185.922 83.8594 185.922 85.1406C185.922 86.4531 185.344 87.1094 184.188 87.1094C182.875 87.1094 182.219 86.4062 182.219 85C182.219 83.625 182.469 81.875 182.969 79.75C183.469 77.625 183.719 76.0312 183.719 74.9688V62.7812C183.781 45.6562 183.812 32.8281 183.812 24.2969C183.812 22.3281 184.406 20.7656 185.594 19.6094L184.656 18.6719C183.281 20.0781 181 20.7812 177.812 20.7812L167.734 20.1719C164.516 20.1719 162.188 20.8906 160.75 22.3281L159.812 21.3438C161 20.1562 161.594 18.6094 161.594 16.7031ZM202 90.5312C202.75 93.9688 203.125 96.9531 203.125 99.4844C203.125 100.578 202.734 101.125 201.953 101.125C201.172 101.125 200.781 100.625 200.781 99.625C200.781 96.8125 201.188 93.7812 202 90.5312ZM261.859 15.9531C261.859 21.4531 259.547 27.4375 254.922 33.9062L247.938 33.3438C249.875 29.375 251.219 24.8438 251.969 19.75H244.422C242.516 19.75 241.406 19.5938 241.094 19.2812C240.781 18.9688 240.625 17.8594 240.625 15.9531V10.2344C240.625 10.0781 240.625 9.59375 240.625 8.78125C240.625 7.9375 240.625 7.28125 240.625 6.8125C240.656 6.3125 240.766 5.84375 240.953 5.40625C241.141 4.9375 241.391 4.67188 241.703 4.60938C242.016 4.54688 242.516 4.51562 243.203 4.51562H256.141C256.359 4.51562 257.125 4.51562 258.438 4.51562C259.781 4.51562 260.688 4.64062 261.156 4.89062C261.656 5.10938 261.906 5.82812 261.906 7.04688L261.859 15.9531ZM303.719 80.6875L304.188 75.9531V67.1875C295.781 66.75 289.5 65.6094 285.344 63.7656C281.188 61.8906 278.125 59.5469 276.156 56.7344C274.969 55.0781 274.047 53.2344 273.391 51.2031C272.766 49.1406 271.719 47.5938 270.25 46.5625L270.953 45.5781C272.359 46.5156 273.875 46.9844 275.5 46.9844C277.156 46.9844 279.266 46.9219 281.828 46.7969C284.391 46.6719 287.281 46.5312 290.5 46.375C293.719 46.1875 296.016 46.0625 297.391 46C298.766 45.9375 299.781 45.75 300.438 45.4375C301.094 45.0938 301.562 44.4844 301.844 43.6094L303.953 44.3125C303.859 44.5625 303.812 44.8906 303.812 45.2969C303.812 46.3281 304.672 47.5 306.391 48.8125C308.109 50.125 311.219 50.7812 315.719 50.7812C318.75 50.7812 320.906 50.2656 322.188 49.2344C322.75 48.7656 323.031 48.2031 323.031 47.5469C323.031 46.0156 322.188 45 320.5 44.5C318.812 44 316.766 43.5781 314.359 43.2344C311.984 42.8594 309.594 42.5625 307.188 42.3438C304.812 42.125 302.234 41.8125 299.453 41.4062C296.672 41 294.047 40.5625 291.578 40.0938C289.109 39.5938 286.703 38.875 284.359 37.9375C282.047 37 280.062 35.9062 278.406 34.6562C276.75 33.375 275.406 31.75 274.375 29.7812C273.375 27.7812 272.875 25.5156 272.875 22.9844C272.875 20.4531 273.266 18.1406 274.047 16.0469C274.859 13.9531 275.953 12.1562 277.328 10.6562C278.703 9.15625 280.359 7.82812 282.297 6.67188C284.266 5.51562 286.312 4.57812 288.438 3.85938C290.594 3.14062 292.938 2.5625 295.469 2.125C299.875 1.3125 304.031 0.90625 307.938 0.90625C311.844 0.90625 314.812 0.96875 316.844 1.09375C318.906 1.1875 321.312 1.39062 324.062 1.70312C326.844 1.98438 329.344 2.46875 331.562 3.15625C333.812 3.8125 336.031 4.65625 338.219 5.6875C342.781 7.8125 345.984 11.1094 347.828 15.5781C348.578 17.1719 349.609 18.6562 350.922 20.0312L350.312 21.1094C349 20.2031 347.484 19.75 345.766 19.75H345.156C342.656 19.8438 339.078 20.0312 334.422 20.3125C329.797 20.5625 326.812 20.7188 325.469 20.7812C324.156 20.8438 323.203 21.0312 322.609 21.3438C322.047 21.6562 321.641 22.25 321.391 23.125L319.328 22.5625C319.422 22.2812 319.469 21.9844 319.469 21.6719C319.469 20.3594 318.406 19.2344 316.281 18.2969C314.156 17.3281 311.75 16.8438 309.062 16.8438C303.812 16.8438 301.188 17.875 301.188 19.9375C301.188 21.7812 305.125 23.125 313 23.9688C314.844 24.1875 316.938 24.4062 319.281 24.625C327.438 25.4688 333.688 26.5781 338.031 27.9531C347.156 30.8281 351.719 36.3125 351.719 44.4062C351.719 47.7188 351.031 50.7031 349.656 53.3594C348.281 55.9844 346.484 58.125 344.266 59.7812C342.078 61.4375 339.484 62.8125 336.484 63.9062C331.078 65.875 324.906 66.8594 317.969 66.8594C316.094 66.8594 314.984 66.8438 314.641 66.8125C312.953 66.8125 312.109 68.1094 312.109 70.7031V71.8281C312.109 72.6719 312.312 73.9062 312.719 75.5312C313.156 77.1875 313.375 78.4219 313.375 79.2344C313.375 80.8906 312.797 81.7188 311.641 81.7188C311.047 81.7188 310.578 81.4688 310.234 80.9688C309.922 80.4688 309.766 79.8438 309.766 79.0938C309.766 78.3438 309.953 77.0625 310.328 75.25C310.734 73.4688 310.938 72.1719 310.938 71.3594C310.938 70.5469 310.922 69.9688 310.891 69.625C310.891 69.3125 310.844 68.9062 310.75 68.4062C310.688 67.9375 310.562 67.5938 310.375 67.375C309.938 66.8125 309.188 66.5312 308.125 66.5312C306.188 66.5312 305.219 68.2188 305.219 71.5938L305.5 79.2812C305.5 81.3438 305.203 82.375 304.609 82.375C304.016 82.375 303.719 81.8125 303.719 80.6875ZM443.688 52.4688C442.5 51.5312 441.906 50.4375 441.906 49.1875V48.8125C441.906 47.5625 442.469 46.375 443.594 45.25L442.938 44.6406C441.812 45.7656 440.641 46.3281 439.422 46.3281H434.875C432.969 46.3281 431.406 46.9375 430.188 48.1562L429.203 47.1719C430.453 45.9219 431.078 44.375 431.078 42.5312V35.5938C431.078 33.7188 430.453 32.1562 429.203 30.9062L430.188 29.9688C431.375 31.1562 432.938 31.75 434.875 31.75H463.656C465.594 31.75 467.156 31.1562 468.344 29.9688L469.234 30.9062C468.047 32.0938 467.453 33.6562 467.453 35.5938V55.2344C467.453 56.2031 467.578 56.9844 467.828 57.5781C468.109 58.1406 468.656 58.6406 469.469 59.0781L468.719 60.4375C468.156 60.1562 467.516 60.0156 466.797 60.0156C466.109 60.0156 465.312 60.3125 464.406 60.9062C457.156 65.75 446.844 68.4688 433.469 69.0625V73.5625L434.219 78.7656C434.219 79.5156 434.062 80.0938 433.75 80.5C433.438 80.9062 433.078 81.1094 432.672 81.1094C432.297 81.1094 431.953 80.9219 431.641 80.5469C431.328 80.1719 431.172 79.7969 431.172 79.4219C431.172 79.0781 431.234 78.5938 431.359 77.9688C431.734 76.0312 431.922 74.0625 431.922 72.0625C431.922 70.0625 431.781 69.0625 431.5 69.0625C425.375 69.0625 418.938 68.6406 412.188 67.7969C411.906 67.7031 411.766 69.375 411.766 72.8125C411.766 76.25 412.047 79.7969 412.609 83.4531C413.203 87.1094 413.5 89.6562 413.5 91.0938C413.5 94 412.609 95.4531 410.828 95.4531C409.984 95.4531 409.25 95.125 408.625 94.4688C408.031 93.8125 407.734 92.75 407.734 91.2812C407.734 89.8438 408.25 87.25 409.281 83.5C410.312 79.7812 410.828 76.875 410.828 74.7812V67.4688C392.984 63.4688 384.062 52.7031 384.062 35.1719C384.062 21.8281 389.562 12.5 400.562 7.1875C406.906 4.09375 414.656 2.54688 423.812 2.54688C438.594 2.54688 449.938 5.4375 457.844 11.2188C462.125 14.3438 464.859 17.9062 466.047 21.9062C466.609 23.7812 467.609 25.2188 469.047 26.2188L468.344 27.1562C467.062 26.2188 465.375 25.75 463.281 25.75L443.5 26.4062C441.531 26.5312 440.203 27.2812 439.516 28.6562L437.969 27.9062C438.219 27.375 438.344 26.7656 438.344 26.0781C438.344 25.3906 437.812 24.3438 436.75 22.9375C435.688 21.5 434.219 20.4219 432.344 19.7031C430.5 18.9531 428.047 18.5781 424.984 18.5781C421.953 18.5781 419.484 19.0156 417.578 19.8906C415.672 20.7656 414.156 21.9688 413.031 23.5C410.844 26.5938 409.75 30.6875 409.75 35.7812C409.75 40.875 411.375 45.0781 414.625 48.3906C417.906 51.6719 422.188 53.3125 427.469 53.3125C432.75 53.3125 436.766 52.9688 439.516 52.2812C440.016 52.1562 440.5 52.0938 440.969 52.0938C441.438 52.0938 442.156 52.4688 443.125 53.2188L443.688 52.4688ZM521.172 74.5938L521.5 70.0938C521.5 69.3125 521.125 68.7031 520.375 68.2656C519.625 67.8594 518.812 67.6562 517.938 67.6562C517.062 67.6562 516.281 67.8906 515.594 68.3594C514.906 68.8281 514.562 69.5 514.562 70.375V81.1562C514.562 82.7188 514.891 85.0156 515.547 88.0469C516.203 91.0781 516.531 93.2344 516.531 94.5156C516.531 95.8281 516.25 96.9062 515.688 97.75C515.125 98.5938 514.344 99.0156 513.344 99.0156C512.375 99.0156 511.641 98.5781 511.141 97.7031C510.641 96.8281 510.391 95.6875 510.391 94.2812C510.391 92.875 510.75 90.4375 511.469 86.9688C512.188 83.5 512.547 80.8125 512.547 78.9062C512.547 71.1875 511.109 67.3281 508.234 67.3281C504.359 67.3281 502.422 67.1719 502.422 66.8594V66.9531C502.422 69.1094 502.891 72.2656 503.828 76.4219C504.797 80.6094 505.281 83.6094 505.281 85.4219C505.281 87.2344 504.953 88.7188 504.297 89.875C503.641 91.0625 502.625 91.6562 501.25 91.6562C499.906 91.6562 498.844 91.0938 498.062 89.9688C497.312 88.8438 496.938 87.375 496.938 85.5625C496.938 83.7812 497.391 80.7031 498.297 76.3281C499.203 71.9844 499.656 68.6875 499.656 66.4375C492.25 64.0938 486.672 60.2656 482.922 54.9531C479.203 49.6406 477.344 43.0781 477.344 35.2656C477.344 19.0781 485.5 8.85938 501.812 4.60938C507.094 3.23438 512.547 2.54688 518.172 2.54688C523.828 2.54688 528.625 2.85938 532.562 3.48438C536.531 4.10938 540.359 5.21875 544.047 6.8125C547.766 8.375 550.922 10.375 553.516 12.8125C556.141 15.2188 558.234 18.3438 559.797 22.1875C561.359 26 562.141 30.3594 562.141 35.2656C562.141 45.2656 559.328 53.0156 553.703 58.5156C548.078 63.9844 540.172 67.3438 529.984 68.5938C529.859 68.8125 529.797 69.1562 529.797 69.625L530.031 72.2031C530.031 73.7969 529.594 74.5938 528.719 74.5938C527.844 74.5938 527.406 73.8281 527.406 72.2969L527.547 69.6719C527.547 68.7344 526.875 68.2656 525.531 68.2656C525.406 68.5469 525.344 69.0781 525.344 69.8594L525.578 74.4062C525.578 75.3438 525.406 76.25 525.062 77.125C524.719 78 524.141 78.4375 523.328 78.4375C521.891 78.4375 521.172 77.1562 521.172 74.5938ZM503.453 35.3125C503.453 46.75 508.891 52.4688 519.766 52.4688C530.641 52.4688 536.078 46.75 536.078 35.3125C536.078 30.0625 534.672 26.0469 531.859 23.2656C529.047 20.4844 525.016 19.0938 519.766 19.0938C514.516 19.0938 510.484 20.4844 507.672 23.2656C504.859 26.0469 503.453 30.0625 503.453 35.3125Z" fill="#FFC800"/>
</svg>
